ModelForces
version=1
nRows=4
nColumns=203
inDegrees=no

This file contains the forces exerted on a model during a simulation.

A force is a generalized force, meaning that it can be either a force (N) or a torque (Nm).

Units are S.I. units (second, meters, Newtons, ...)
Angles are in degrees.

endheader
time	glut_med1_r	glut_med2_r	glut_med3_r	glut_min1_r	glut_min2_r	glut_min3_r	semimem_r	semiten_r	bifemlh_r	bifemsh_r	sar_r	add_long_r	add_brev_r	add_mag1_r	add_mag2_r	add_mag3_r	tfl_r	pect_r	grac_r	glut_max1_r	glut_max2_r	glut_max3_r	iliacus_r	psoas_r	quad_fem_r	gem_r	peri_r	rect_fem_r	vas_med_r	vas_int_r	vas_lat_r	med_gas_r	lat_gas_r	soleus_r	tib_post_r	flex_dig_r	flex_hal_r	tib_ant_r	per_brev_r	per_long_r	per_tert_r	ext_dig_r	ext_hal_r	glut_med1_l	glut_med2_l	glut_med3_l	glut_min1_l	glut_min2_l	glut_min3_l	semimem_l	semiten_l	bifemlh_l	bifemsh_l	sar_l	add_long_l	add_brev_l	add_mag1_l	add_mag2_l	add_mag3_l	tfl_l	pect_l	grac_l	glut_max1_l	glut_max2_l	glut_max3_l	iliacus_l	psoas_l	quad_fem_l	gem_l	peri_l	rect_fem_l	vas_med_l	vas_int_l	vas_lat_l	med_gas_l	lat_gas_l	soleus_l	tib_post_l	flex_dig_l	flex_hal_l	tib_ant_l	per_brev_l	per_long_l	per_tert_l	ext_dig_l	ext_hal_l	ercspn_r	ercspn_l	intobl_r	intobl_l	extobl_r	extobl_l	femur_lat_meniscii_l.femur_lat_l.force.X	femur_lat_meniscii_l.femur_lat_l.force.Y	femur_lat_meniscii_l.femur_lat_l.force.Z	femur_lat_meniscii_l.femur_lat_l.torque.X	femur_lat_meniscii_l.femur_lat_l.torque.Y	femur_lat_meniscii_l.femur_lat_l.torque.Z	femur_lat_meniscii_l.meniscus_lat_l.force.X	femur_lat_meniscii_l.meniscus_lat_l.force.Y	femur_lat_meniscii_l.meniscus_lat_l.force.Z	femur_lat_meniscii_l.meniscus_lat_l.torque.X	femur_lat_meniscii_l.meniscus_lat_l.torque.Y	femur_lat_meniscii_l.meniscus_lat_l.torque.Z	femur_med_meniscii_l.femur_med_l.force.X	femur_med_meniscii_l.femur_med_l.force.Y	femur_med_meniscii_l.femur_med_l.force.Z	femur_med_meniscii_l.femur_med_l.torque.X	femur_med_meniscii_l.femur_med_l.torque.Y	femur_med_meniscii_l.femur_med_l.torque.Z	femur_med_meniscii_l.meniscus_med_l.force.X	femur_med_meniscii_l.meniscus_med_l.force.Y	femur_med_meniscii_l.meniscus_med_l.force.Z	femur_med_meniscii_l.meniscus_med_l.torque.X	femur_med_meniscii_l.meniscus_med_l.torque.Y	femur_med_meniscii_l.meniscus_med_l.torque.Z	femur_lat_meniscii_r.femur_lat_r.force.X	femur_lat_meniscii_r.femur_lat_r.force.Y	femur_lat_meniscii_r.femur_lat_r.force.Z	femur_lat_meniscii_r.femur_lat_r.torque.X	femur_lat_meniscii_r.femur_lat_r.torque.Y	femur_lat_meniscii_r.femur_lat_r.torque.Z	femur_lat_meniscii_r.meniscus_lat_r.force.X	femur_lat_meniscii_r.meniscus_lat_r.force.Y	femur_lat_meniscii_r.meniscus_lat_r.force.Z	femur_lat_meniscii_r.meniscus_lat_r.torque.X	femur_lat_meniscii_r.meniscus_lat_r.torque.Y	femur_lat_meniscii_r.meniscus_lat_r.torque.Z	femur_med_meniscii_r.femur_med_r.force.X	femur_med_meniscii_r.femur_med_r.force.Y	femur_med_meniscii_r.femur_med_r.force.Z	femur_med_meniscii_r.femur_med_r.torque.X	femur_med_meniscii_r.femur_med_r.torque.Y	femur_med_meniscii_r.femur_med_r.torque.Z	femur_med_meniscii_r.meniscus_med_r.force.X	femur_med_meniscii_r.meniscus_med_r.force.Y	femur_med_meniscii_r.meniscus_med_r.force.Z	femur_med_meniscii_r.meniscus_med_r.torque.X	femur_med_meniscii_r.meniscus_med_r.torque.Y	femur_med_meniscii_r.meniscus_med_r.torque.Z	femur_med_tibia_l.tibia_upper_l.force.X	femur_med_tibia_l.tibia_upper_l.force.Y	femur_med_tibia_l.tibia_upper_l.force.Z	femur_med_tibia_l.tibia_upper_l.torque.X	femur_med_tibia_l.tibia_upper_l.torque.Y	femur_med_tibia_l.tibia_upper_l.torque.Z	femur_med_tibia_l.femur_med_l.force.X	femur_med_tibia_l.femur_med_l.force.Y	femur_med_tibia_l.femur_med_l.force.Z	femur_med_tibia_l.femur_med_l.torque.X	femur_med_tibia_l.femur_med_l.torque.Y	femur_med_tibia_l.femur_med_l.torque.Z	femur_lat_tibia_l.tibia_upper_l.force.X	femur_lat_tibia_l.tibia_upper_l.force.Y	femur_lat_tibia_l.tibia_upper_l.force.Z	femur_lat_tibia_l.tibia_upper_l.torque.X	femur_lat_tibia_l.tibia_upper_l.torque.Y	femur_lat_tibia_l.tibia_upper_l.torque.Z	femur_lat_tibia_l.femur_lat_l.force.X	femur_lat_tibia_l.femur_lat_l.force.Y	femur_lat_tibia_l.femur_lat_l.force.Z	femur_lat_tibia_l.femur_lat_l.torque.X	femur_lat_tibia_l.femur_lat_l.torque.Y	femur_lat_tibia_l.femur_lat_l.torque.Z	femur_med_tibia_r.tibia_upper_r.force.X	femur_med_tibia_r.tibia_upper_r.force.Y	femur_med_tibia_r.tibia_upper_r.force.Z	femur_med_tibia_r.tibia_upper_r.torque.X	femur_med_tibia_r.tibia_upper_r.torque.Y	femur_med_tibia_r.tibia_upper_r.torque.Z	femur_med_tibia_r.femur_med_r.force.X	femur_med_tibia_r.femur_med_r.force.Y	femur_med_tibia_r.femur_med_r.force.Z	femur_med_tibia_r.femur_med_r.torque.X	femur_med_tibia_r.femur_med_r.torque.Y	femur_med_tibia_r.femur_med_r.torque.Z	femur_lat_tibia_r.tibia_upper_r.force.X	femur_lat_tibia_r.tibia_upper_r.force.Y	femur_lat_tibia_r.tibia_upper_r.force.Z	femur_lat_tibia_r.tibia_upper_r.torque.X	femur_lat_tibia_r.tibia_upper_r.torque.Y	femur_lat_tibia_r.tibia_upper_r.torque.Z	femur_lat_tibia_r.femur_lat_r.force.X	femur_lat_tibia_r.femur_lat_r.force.Y	femur_lat_tibia_r.femur_lat_r.force.Z	femur_lat_tibia_r.femur_lat_r.torque.X	femur_lat_tibia_r.femur_lat_r.torque.Y	femur_lat_tibia_r.femur_lat_r.torque.Z	aACL_R	pACL_R	aPCL_R	pPCL_R	aMCL_R	mMCL_R	pMCL_R	aLCL_R	mLCL_R	pLCL_R	aPCL_L	pPCL_L	aMCL_L	aLCL_L
      0.00000000	     37.48087652	     28.28714471	     30.25598133	     13.28977762	     14.47626353	     15.91713841	     41.91604554	     20.39409361	     37.70804409	     36.02754664	      7.58998984	     27.93927808	     20.68957741	     14.51222487	     12.16230296	     19.66717628	     12.69197704	     11.16605282	      7.77608382	     18.12681708	     27.55933735	     20.56469162	     63.94906620	     55.74758807	     18.09791099	      9.16719286	     20.03897647	     52.55469672	     32.38176469	     32.82510377	     40.14722941	     67.39492298	     31.74693446	    152.72720615	     92.44658902	     14.93332009	     15.26895791	     41.82851940	     21.62523106	     46.40594865	      8.86060096	     25.04818486	      7.96045570	     37.48087652	     28.28714471	     30.25598133	     13.28977762	     14.47626353	     15.91713841	     42.06683902	     20.39635155	     37.67631238	     36.01822118	      7.59254209	     27.93927808	     20.68957741	     14.51222487	     12.16230296	     19.66717628	     12.58139899	     11.16605282	      7.78214370	     18.12681708	     27.55933735	     20.56469162	     63.94906620	     55.74758807	     18.09791099	      9.16719286	     20.03897647	     52.59637061	     32.48786114	     37.22481259	     39.87514307	     67.71424671	     31.64857027	    152.72720615	     92.44658902	     14.93332009	     15.26895791	     41.82851940	     21.62523106	     46.40594865	      8.86060096	     25.04818486	      7.96045570	    124.99446086	    124.99446086	     44.97041513	     44.97041513	     60.98287244	     60.98287244	      2.76307435	     50.99597937	     -9.56042239	      5.21997485	     -0.02578839	      1.48581788	     -2.76307435	    -50.99597937	      9.56042239	     -1.74637766	      0.02558040	     -0.48301696	     -3.31599387	     20.97615968	     -3.40468921	      0.94473225	     -0.02138609	     -1.00501789	      3.31599387	    -20.97615968	      3.40468921	      0.28075727	      0.00368718	     -0.29758878	      0.13243531	      0.28299364	      0.00246511	     -0.00837665	      0.00349976	      0.05534422	     -0.13243531	     -0.28299364	     -0.00246511	      0.00891056	     -0.00419209	     -0.00454827	      0.08239412	      3.64420958	      0.29868801	     -0.04628927	     -0.00646305	      0.09076941	     -0.08239412	     -3.64420958	     -0.29868801	     -0.04962961	      0.00624440	     -0.06164219	      0.00000000	      0.00000000	      0.00000000	      0.00000000	      0.00000000	      0.00000000	      0.00000000	      0.00000000	      0.00000000	      0.00000000	      0.00000000	      0.00000000	      0.00000000	      0.00000000	      0.00000000	      0.00000000	      0.00000000	      0.00000000	      0.00000000	      0.00000000	      0.00000000	      0.00000000	      0.00000000	      0.00000000	      0.00000000	      0.00000000	      0.00000000	      0.00000000	      0.00000000	      0.00000000	      0.00000000	      0.00000000	      0.00000000	      0.00000000	      0.00000000	      0.00000000	      0.00000000	      0.00000000	      0.00000000	      0.00000000	      0.00000000	      0.00000000	      0.00000000	      0.00000000	      0.00000000	      0.00000000	      0.00000000	      0.00000000	    137.19832251	    218.80008521	      0.00000000	      0.00000000	      0.00000000	      1.86482875	     11.70724818	      1.86146449	      0.00000000	      2.98101398	      0.00000000	      0.00000000	      0.00000001	      0.00000000
      0.00100000	     37.47068608	     28.27022932	     30.24086714	     13.26950867	     14.46480712	     15.91260065	     42.08684672	     21.93730558	     38.36808660	     44.59349695	     12.03869166	     27.92554748	     20.64313666	     14.50364319	     12.15716021	     19.66293667	     12.47449214	     11.15324218	     10.28634931	     18.11779344	     27.54583488	     20.55620729	     63.92578024	     55.73415570	     18.08271668	      9.16509816	     20.03713766	     49.83322411	     26.88710932	     27.75161186	     34.11753122	     65.34574894	     30.81566454	    146.26531975	     91.57450875	     14.94097929	     15.21975953	     43.59356516	     21.56861624	     46.21994405	      9.44465623	     25.50740756	      8.11321701	     37.47068608	     28.27022932	     30.24086714	     13.26950867	     14.46480712	     15.91260065	     42.06228881	     20.39020965	     37.67123261	     35.98888344	      7.57882260	     27.92554748	     20.64313666	     14.50364319	     12.15716021	     19.66293667	     12.58033419	     11.15324218	      7.77413879	     18.11779344	     27.54583488	     20.55620729	     63.92578024	     55.73415570	     18.08271668	      9.16509816	     20.03713766	     52.58867645	     32.47668845	     37.21372981	     39.86386325	     67.70976811	     31.64643975	    152.71327822	     92.44307771	     14.93481584	     15.27019563	     41.82127614	     21.62263156	     46.40335095	      8.85785788	     25.04193096	      7.95792407	    124.81723588	    124.81723588	     44.95337082	     44.95337082	     60.96445217	     60.96445217	      2.76307435	     50.99597937	     -9.56042239	      5.21997485	     -0.02578839	      1.48581788	     -2.76307435	    -50.99597937	      9.56042239	     -1.74637766	      0.02558040	     -0.48301696	     -3.31599387	     20.97615968	     -3.40468921	      0.94473225	     -0.02138609	     -1.00501789	      3.31599387	    -20.97615968	      3.40468921	      0.28075727	      0.00368718	     -0.29758878	     -0.74345412	      1.77801303	      0.22709066	     -0.14382046	     -0.02205830	     -0.30411075	      0.74345412	     -1.77801303	     -0.22709066	      0.06567091	      0.02611667	      0.01648805	     -3.70860387	     10.78324436	      2.45908476	     -0.81286702	      0.03102096	     -1.40221632	      3.70860387	    -10.78324436	     -2.45908476	     -0.07760755	     -0.00974270	     -0.03403601	      0.00000000	      0.00000000	      0.00000000	      0.00000000	      0.00000000	      0.00000000	      0.00000000	      0.00000000	      0.00000000	      0.00000000	      0.00000000	      0.00000000	      0.00000000	      0.00000000	      0.00000000	      0.00000000	      0.00000000	      0.00000000	      0.00000000	      0.00000000	      0.00000000	      0.00000000	      0.00000000	      0.00000000	      0.00000000	      0.00000000	      0.00000000	      0.00000000	      0.00000000	      0.00000000	      0.00000000	      0.00000000	      0.00000000	      0.00000000	      0.00000000	      0.00000000	      0.00000000	      0.00000000	      0.00000000	      0.00000000	      0.00000000	      0.00000000	      0.00000000	      0.00000000	      0.00000000	      0.00000000	      0.00000000	      0.00000000	     63.59649475	    144.89073676	      0.00000000	      0.00000000	      0.00000000	    -87.87818698	    -76.84229215	    -59.47338880	      0.00000000	    -62.04181793	      0.00000000	      0.00000000	      0.00000001	      0.00000000
      0.00289352	     37.39658708	     28.15266274	     30.13437640	     13.14553701	     14.38746311	     15.87966172	     43.99739636	     30.36231186	     42.58094757	     88.50917577	     28.97891336	     27.82870764	     20.38576107	     14.44395367	     12.12054593	     19.63186960	     11.69458706	     11.07072181	     21.98969985	     18.05421392	     27.45059318	     20.49571537	     63.76048132	     55.63614562	     17.98059077	      9.14984227	     20.02342761	     38.75451976	      9.47761725	     11.01785436	     13.36177526	     56.39778962	     26.75071374	    114.04618880	     86.44326220	     15.01819146	     14.98757362	     53.80606726	     21.51964136	     45.44487691	     12.92979878	     28.02334881	      8.90047534	     37.39658708	     28.15266274	     30.13437640	     13.14553701	     14.38746311	     15.87966172	     42.02844921	     20.34572323	     37.63358812	     35.79100056	      7.49809746	     27.82870764	     20.38576107	     14.44395367	     12.12054593	     19.63186960	     12.57239918	     11.07072181	      7.72172083	     18.05421392	     27.45059318	     20.49571537	     63.76048132	     55.63614562	     17.98059077	      9.14984227	     20.02342761	     52.53174416	     32.39627481	     37.13344951	     39.78199300	     67.67625745	     31.63050003	    152.60942238	     92.41674674	     14.94561630	     15.27905740	     41.76787872	     21.60332298	     46.38388191	      8.83803410	     24.99621526	      7.93949709	    123.71717659	    123.71717659	     44.83124579	     44.83124579	     60.83330808	     60.83330808	      2.76307435	     50.99597937	     -9.56042239	      5.21997485	     -0.02578839	      1.48581788	     -2.76307435	    -50.99597937	      9.56042239	     -1.74637766	      0.02558040	     -0.48301696	     -3.31599387	     20.97615968	     -3.40468921	      0.94473225	     -0.02138609	     -1.00501789	      3.31599387	    -20.97615968	      3.40468921	      0.28075727	      0.00368718	     -0.29758878	    -26.66432152	     28.80754549	      8.34257894	     -4.29613750	     -0.80299216	    -11.00168793	     26.66432152	    -28.80754549	     -8.34257894	      1.23408317	      0.94889627	      0.71101627	    -45.26273030	     72.85347030	     27.71146964	    -10.27128161	      0.32787155	    -17.92225861	     45.26273030	    -72.85347030	    -27.71146964	     -0.01667114	     -0.06464200	      0.42632557	      0.00000000	      0.00000000	      0.00000000	      0.00000000	      0.00000000	      0.00000000	      0.00000000	      0.00000000	      0.00000000	      0.00000000	      0.00000000	      0.00000000	      0.00000000	      0.00000000	      0.00000000	      0.00000000	      0.00000000	      0.00000000	      0.00000000	      0.00000000	      0.00000000	      0.00000000	      0.00000000	      0.00000000	      0.00000000	      0.00000000	      0.00000000	      0.00000000	      0.00000000	      0.00000000	      0.00000000	      0.00000000	      0.00000000	      0.00000000	      0.00000000	      0.00000000	      0.00000000	      0.00000000	      0.00000000	      0.00000000	      0.00000000	      0.00000000	      0.00000000	      0.00000000	      0.00000000	      0.00000000	      0.00000000	      0.00000000	     -6.86953681	     72.44005936	      0.00000000	      0.00000000	      0.00000000	   -135.52714876	   -125.08600993	    -75.74806637	      0.00000000	    -81.80343847	      0.00000000	      0.00000000	      0.00000001	      0.00000000
      0.00442685	     37.28588988	     27.98619574	     29.98116636	     12.99282579	     14.28153006	     15.83055788	     48.63450824	     42.25184664	     49.40277981	    138.52805631	     42.77149344	     27.68921449	     20.09740434	     14.35935526	     12.06721069	     19.58501886	     11.12483079	     10.96338975	     34.45541524	     17.96272636	     27.31337079	     20.40744888	     63.52052124	     55.48911308	     17.84141080	      9.12700589	     20.00230662	     31.16068840	      3.12556757	      4.08583818	      4.31107541	     50.25696626	     23.93320074	     85.68100873	     80.63851462	     15.13585322	     14.78864768	     63.87692264	     21.85991405	     44.99609493	     14.61500684	     30.63854333	      9.63151562	     37.28588988	     27.98619574	     29.98116636	     12.99282579	     14.28153006	     15.83055788	     41.97648061	     20.27957907	     37.57602890	     35.52024445	      7.40242404	     27.68921449	     20.09740434	     14.35935526	     12.06721069	     19.58501886	     12.56018260	     10.96338975	      7.65232184	     17.96272636	     27.31337079	     20.40744888	     63.52052124	     55.48911308	     17.84141080	      9.12700589	     20.00230662	     52.44485858	     32.27759856	     37.01405549	     39.65993398	     67.62440415	     31.60583902	    152.44940623	     92.37589012	     14.96151484	     15.29194501	     41.68675940	     21.57371660	     46.35369488	      8.80863848	     24.92764927	      7.91201159	    122.34143922	    122.34143922	     44.65201122	     44.65201122	     60.64224726	     60.64224726	      2.76307435	     50.99597937	     -9.56042239	      5.21997485	     -0.02578839	      1.48581788	     -2.76307435	    -50.99597937	      9.56042239	     -1.74637766	      0.02558040	     -0.48301696	     -3.31599387	     20.97615968	     -3.40468921	      0.94473225	     -0.02138609	     -1.00501789	      3.31599387	    -20.97615968	      3.40468921	      0.28075727	      0.00368718	     -0.29758878	    -58.22565938	     74.77336469	     16.13640953	     -8.80367857	     -1.72284374	    -23.89716146	     58.22565938	    -74.77336469	    -16.13640953	      2.97659630	      2.03936867	      1.40434231	    -69.27760278	    150.74491905	     49.27158936	    -17.76948561	      0.43096397	    -26.82031420	     69.27760278	   -150.74491905	    -49.27158936	     -0.41324497	     -0.01013042	     -0.03277746	      0.00000000	      0.00000000	      0.00000000	      0.00000000	      0.00000000	      0.00000000	      0.00000000	      0.00000000	      0.00000000	      0.00000000	      0.00000000	      0.00000000	      0.00000000	      0.00000000	      0.00000000	      0.00000000	      0.00000000	      0.00000000	      0.00000000	      0.00000000	      0.00000000	      0.00000000	      0.00000000	      0.00000000	     44.03797435	    -93.21715388	    -12.76756038	     -0.22722146	     -0.12755383	      0.24011988	    -44.03797435	     93.21715388	     12.76756038	     -4.21207676	      0.36778013	    -17.30609851	      0.00000000	      0.00000000	      0.00000000	      0.00000000	      0.00000000	      0.00000000	      0.00000000	      0.00000000	      0.00000000	      0.00000000	      0.00000000	      0.00000000	     -8.25156834	     66.00148939	      0.00000000	      0.00000000	      0.00000000	   -118.23654156	   -110.33698990	    -76.29284908	      0.00000000	    -82.21670636	      0.00000000	      0.00000000	      0.00000001	      0.00000000
